<svg width="2759" height="1035" viewBox="0 0 2759 1035" fill="none" xmlns="http://www.w3.org/2000/svg">
<g clip-path="url(#clip0_8_2)">
<path d="M1939.73 389.143H1795.44V750.219H1939.73V389.143Z" fill="black"/>
<path d="M1939.73 291.705C1939.73 251.865 1907.43 219.568 1867.58 219.568C1827.74 219.568 1795.44 251.865 1795.44 291.705C1795.44 331.545 1827.74 363.842 1867.58 363.842C1907.43 363.842 1939.73 331.545 1939.73 291.705Z" fill="black"/>
<path d="M321.757 434.65L555.73 129.903L441.269 42.0671L144.295 428.88V0H0V739.354H145.319C144.97 734.978 144.752 730.557 144.752 726.072C144.752 632.662 199.5 577.944 292.902 577.944C386.304 577.944 444.558 632.684 444.558 726.072C444.558 730.536 444.34 734.956 443.992 739.354H585.499C585.695 734.956 585.804 730.536 585.804 726.072C585.804 574.069 469.993 449.152 321.778 434.65H321.757Z" fill="black"/>
<path d="M2218.93 419.626C2206.78 417.079 2194.2 415.707 2181.28 415.707C2168.37 415.707 2155.78 417.079 2143.63 419.626V389.165H1999.33V750.241H2143.63V597.628C2143.63 576.834 2160.48 559.981 2181.28 559.981C2202.08 559.981 2218.93 576.834 2218.93 597.628V750.241H2363.23V597.628C2363.23 510.075 2301.34 436.98 2218.93 419.626Z" fill="black"/>
<path d="M1582.02 378.713C1568.15 378.713 1554.67 380.281 1541.67 383.199C1459.11 401.62 1397.37 475.259 1397.37 563.356V893.971H1541.67V743.513C1554.67 746.409 1568.15 747.999 1582.02 747.999C1684 747.999 1766.67 665.345 1766.67 563.378C1766.67 461.411 1684 378.757 1582.02 378.757V378.713ZM1585.29 613.458C1556.95 613.458 1534 590.508 1534 562.18C1534 533.852 1556.95 510.903 1585.29 510.903C1613.62 510.903 1636.57 533.852 1636.57 562.18C1636.57 590.508 1613.62 613.458 1585.29 613.458Z" fill="black"/>
<path d="M2613.8 384.962C2600.8 382.066 2587.32 380.477 2573.44 380.477C2471.46 380.477 2388.8 463.13 2388.8 565.098C2388.8 667.065 2471.46 749.718 2573.44 749.718C2587.32 749.718 2600.8 748.151 2613.8 745.233V853.057C2613.8 873.851 2596.94 890.704 2576.14 890.704C2555.35 890.704 2538.49 873.851 2538.49 853.057V784.796H2394.2V853.057C2394.2 940.61 2456.09 1013.71 2538.49 1031.06C2550.64 1033.61 2563.23 1034.98 2576.14 1034.98C2589.06 1034.98 2601.65 1033.61 2613.8 1031.06C2696.22 1013.73 2758.09 940.632 2758.09 853.057V565.076C2758.09 476.979 2696.35 403.339 2613.8 384.919V384.962ZM2573.44 608.253C2545.11 608.253 2522.16 585.304 2522.16 556.976C2522.16 528.648 2545.11 505.698 2573.44 505.698C2601.78 505.698 2624.73 528.648 2624.73 556.976C2624.73 585.304 2601.78 608.253 2573.44 608.253Z" fill="black"/>
<path d="M785.195 371.92C771.323 371.92 757.843 373.488 744.842 376.405C662.285 394.826 600.547 468.465 600.547 556.563C600.547 644.66 662.285 718.299 744.842 736.72C757.843 739.616 771.323 741.205 785.195 741.205C876.006 741.205 951.463 675.644 966.903 589.267H842.273C829.294 609.517 806.602 622.951 780.753 622.951C747.586 622.951 719.603 600.829 710.696 570.563H969.865V556.563C969.865 548.267 969.255 540.101 968.21 532.089C956.233 441.705 878.902 371.942 785.217 371.942L785.195 371.92ZM839.224 513.886H717.229C729.794 491.785 753.531 476.87 780.753 476.87C807.974 476.87 831.733 491.785 844.276 513.886H839.224Z" fill="black"/>
<path d="M1177.07 376.013C1163.2 376.013 1149.72 377.581 1136.72 380.499C1054.16 398.92 992.426 472.559 992.426 560.656C992.426 648.753 1054.16 722.392 1136.72 740.813C1149.72 743.709 1163.2 745.299 1177.07 745.299C1267.88 745.299 1343.34 679.737 1358.78 593.36H1234.15C1221.17 613.61 1198.48 627.045 1172.63 627.045C1139.46 627.045 1111.48 604.922 1102.57 574.657H1361.74V560.656C1361.74 552.36 1361.13 544.195 1360.09 536.182C1348.11 445.799 1270.78 376.035 1177.1 376.035L1177.07 376.013ZM1231.1 517.979H1109.11C1121.67 495.879 1145.41 480.964 1172.63 480.964C1199.85 480.964 1223.61 495.879 1236.16 517.979H1231.1Z" fill="black"/>
</g>
<defs>
<clipPath id="clip0_8_2">
<rect width="2758.09" height="1035" fill="white"/>
</clipPath>
</defs>
</svg>
